<?xml version="1.0" encoding="UTF-8" ?>
<!DOCTYPE svg PUBLIC "-//W3C//DTD SVG 1.1//EN" "http://www.w3.org/Graphics/SVG/1.1/DTD/svg11.dtd">
<svg width="180px" height="120px" viewBox="0 0 18 12" version="1.1" xmlns="http://www.w3.org/2000/svg">
 <rect style="stroke:none;fill:rgb(255,255,255)" x="0" y="0" width="18" height="12" />
 <polygon style="stroke:none;fill:#CCCCCC;fill-rule:evenodd;"  points=" 0,0  1,0  1,12  2,12
    2,0   3,0   3,12  4,12  4,0  5,0  5,12  6,12  6,0  7,0  7,12  8,12  8,0  9,0  9,12 10,12
   10,0  11,0  11,12 12,12 12,0 13,0 13,12 14,12 14,0 15,0 15,12 16,12 16,0 17,0 17,12 18,12
   18,11  0,11  0,10 18,10 18,9  0,9  0,8  18,8  18,7  0,7  0,6  18,6  18,5  0,5  0,4  18,4
   18,3   0,3   0,2  18,2  18,1  0,1" />
</svg>