<?xml version="1.0" standalone="no"?>
<!DOCTYPE svg PUBLIC "-//W3C//DTD SVG 20010904//EN"
 "http://www.w3.org/TR/2001/REC-SVG-20010904/DTD/svg10.dtd">
<svg version="1.0" xmlns="http://www.w3.org/2000/svg"
 width="33.000000pt" height="32.000000pt" viewBox="0 0 33.000000 32.000000"
 preserveAspectRatio="xMidYMid meet">
<metadata>
Created by potrace 1.10, written by Peter Selinger 2001-2011
</metadata>
<g transform="translate(0.000000,32.000000) scale(0.100000,-0.100000)"
fill="#000000" stroke="none">
<path d="M228 283 c23 -20 42 -42 42 -50 0 -7 6 -13 14 -13 8 0 23 -3 33 -7
14 -5 12 1 -8 23 -15 16 -24 35 -22 42 4 10 0 13 -22 12 -3 0 -18 6 -35 15
-47 24 -47 18 -2 -22z"/>
<path d="M58 277 l4 -33 90 -12 c50 -7 93 -11 95 -9 4 5 -171 87 -184 87 -5 0
-7 -15 -5 -33z"/>
<path d="M10 270 c0 -14 7 -20 22 -20 20 0 21 1 3 20 -10 11 -20 20 -22 20 -1
0 -3 -9 -3 -20z"/>
<path d="M23 183 c-29 -11 -12 -29 27 -27 44 2 134 -17 171 -36 13 -7 31 -21
40 -33 15 -18 18 -19 38 -5 l22 16 -34 21 c-19 11 -42 21 -51 21 -10 0 -36 11
-59 23 -40 23 -122 33 -154 20z"/>
<path d="M42 141 c2 -5 27 -28 57 -52 29 -24 66 -55 82 -68 l29 -24 0 26 c0
20 -13 33 -70 67 -39 23 -73 46 -76 51 -7 12 -27 12 -22 0z"/>
<path d="M10 68 c0 -23 47 -61 66 -54 17 6 18 5 -53 59 -9 6 -13 5 -13 -5z"/>
<path d="M250 58 c0 -7 11 -18 25 -25 30 -13 33 -4 5 20 -24 20 -30 21 -30 5z"/>
</g>
</svg>
